<svg xmlns="http://www.w3.org/2000/svg" width="640" height="400" viewBox="0 0 640 400">
<rect x="0" y="0" width="640" height="400" fill="#fcfcfb"/>
<line x1="46" y1="335.41" x2="528" y2="335.41" stroke="#e1e0d9" stroke-width="1"/>
<text x="38" y="338.91" font-size="11" text-anchor="end" fill="#898781" font-family="system-ui, sans-serif">-0.5</text>
<line x1="46" y1="251.84" x2="528" y2="251.84" stroke="#e1e0d9" stroke-width="1"/>
<text x="38" y="255.34" font-size="11" text-anchor="end" fill="#898781" font-family="system-ui, sans-serif">0</text>
<line x1="46" y1="168.26" x2="528" y2="168.26" stroke="#e1e0d9" stroke-width="1"/>
<text x="38" y="171.76" font-size="11" text-anchor="end" fill="#898781" font-family="system-ui, sans-serif">0.5</text>
<line x1="46" y1="84.69" x2="528" y2="84.69" stroke="#e1e0d9" stroke-width="1"/>
<text x="38" y="88.19" font-size="11" text-anchor="end" fill="#898781" font-family="system-ui, sans-serif">1</text>
<line x1="46" y1="64" x2="46" y2="364" stroke="#e1e0d9" stroke-width="1"/>
<text x="46" y="380" font-size="11" text-anchor="middle" fill="#898781" font-family="system-ui, sans-serif">0</text>
<line x1="142.4" y1="64" x2="142.4" y2="364" stroke="#e1e0d9" stroke-width="1"/>
<text x="142.4" y="380" font-size="11" text-anchor="middle" fill="#898781" font-family="system-ui, sans-serif">2</text>
<line x1="238.8" y1="64" x2="238.8" y2="364" stroke="#e1e0d9" stroke-width="1"/>
<text x="238.8" y="380" font-size="11" text-anchor="middle" fill="#898781" font-family="system-ui, sans-serif">4</text>
<line x1="335.2" y1="64" x2="335.2" y2="364" stroke="#e1e0d9" stroke-width="1"/>
<text x="335.2" y="380" font-size="11" text-anchor="middle" fill="#898781" font-family="system-ui, sans-serif">6</text>
<line x1="431.6" y1="64" x2="431.6" y2="364" stroke="#e1e0d9" stroke-width="1"/>
<text x="431.6" y="380" font-size="11" text-anchor="middle" fill="#898781" font-family="system-ui, sans-serif">8</text>
<line x1="528" y1="64" x2="528" y2="364" stroke="#e1e0d9" stroke-width="1"/>
<text x="528" y="380" font-size="11" text-anchor="middle" fill="#898781" font-family="system-ui, sans-serif">10</text>
<line x1="46" y1="251.84" x2="528" y2="251.84" stroke="#c3c2b7" stroke-width="1.2"/>
<text x="46" y="26" font-size="15" font-weight="600" fill="#0b0b0b" font-family="system-ui, sans-serif">Damped oscillation vs. a cubic on [0, 10]</text>
<line x1="46" y1="44" x2="62" y2="44" stroke="#2a78d6" stroke-width="2.5"/>
<text x="67" y="48" font-size="12" text-anchor="start" fill="#52514e" font-family="system-ui, sans-serif">sin(x)·e^(-x/4)</text>
<line x1="179.5" y1="44" x2="195.5" y2="44" stroke="#1baf7a" stroke-width="2.5"/>
<text x="200.5" y="48" font-size="12" text-anchor="start" fill="#52514e" font-family="system-ui, sans-serif">cos(x)·e^(-x/4)</text>
<line x1="313" y1="44" x2="329" y2="44" stroke="#eda100" stroke-width="2.5"/>
<text x="334" y="48" font-size="12" text-anchor="start" fill="#52514e" font-family="system-ui, sans-serif">x(x-4)(x-10)/120</text>
<polyline points="46,251.84 50.05,238.1 54.1,225.03 58.15,212.69 62.2,201.15 66.25,190.45 70.3,180.65 74.35,171.77 78.4,163.85 82.45,156.9 86.5,150.93 90.55,145.94 94.61,141.94 98.66,138.91 102.71,136.84 106.76,135.7 110.81,135.45 114.86,136.07 118.91,137.51 122.96,139.74 127.01,142.69 131.06,146.33 135.11,150.59 139.16,155.42 143.21,160.76 147.26,166.55 151.31,172.72 155.36,179.22 159.41,185.99 163.46,192.97 167.51,200.08 171.56,207.29 175.61,214.53 179.66,221.74 183.71,228.88 187.76,235.89 191.82,242.73 195.87,249.35 199.92,255.73 203.97,261.81 208.02,267.56 212.07,272.97 216.12,278 220.17,282.62 224.22,286.84 228.27,290.62 232.32,293.96 236.37,296.85 240.42,299.3 244.47,301.29 248.52,302.85 252.57,303.96 256.62,304.64 260.67,304.91 264.72,304.78 268.77,304.26 272.82,303.38 276.87,302.16 280.92,300.62 284.97,298.78 289.03,296.68 293.08,294.33 297.13,291.76 301.18,289.01 305.23,286.1 309.28,283.06 313.33,279.91 317.38,276.69 321.43,273.42 325.48,270.12 329.53,266.83 333.58,263.56 337.63,260.33 341.68,257.18 345.73,254.12 349.78,251.17 353.83,248.34 357.88,245.66 361.93,243.13 365.98,240.77 370.03,238.59 374.08,236.6 378.13,234.8 382.18,233.2 386.24,231.8 390.29,230.6 394.34,229.62 398.39,228.83 402.44,228.25 406.49,227.86 410.54,227.67 414.59,227.66 418.64,227.83 422.69,228.17 426.74,228.66 430.79,229.31 434.84,230.1 438.89,231.01 442.94,232.04 446.99,233.17 451.04,234.4 455.09,235.7 459.14,237.06 463.19,238.48 467.24,239.94 471.29,241.42 475.34,242.92 479.39,244.43 483.45,245.92 487.5,247.4 491.55,248.85 495.6,250.27 499.65,251.63 503.7,252.94 507.75,254.19 511.8,255.37 515.85,256.48 519.9,257.5 523.95,258.45 528,259.3" fill="none" stroke="#2a78d6" stroke-width="2" stroke-linejoin="round" stroke-linecap="round"/>
<circle cx="528" cy="259.3" r="3" fill="#2a78d6"/>
<text x="535" y="269.84" font-size="11" text-anchor="start" fill="#52514e" font-family="system-ui, sans-serif">sin(x)·e^(-x/4)</text>
<polyline points="46,84.69 50.05,88.74 54.1,93.83 58.15,99.86 62.2,106.76 66.25,114.45 70.3,122.82 74.35,131.8 78.4,141.29 82.45,151.2 86.5,161.45 90.55,171.93 94.61,182.57 98.66,193.28 102.71,203.99 106.76,214.6 110.81,225.05 114.86,235.26 118.91,245.18 122.96,254.74 127.01,263.88 131.06,272.56 135.11,280.73 139.16,288.35 143.21,295.39 147.26,301.82 151.31,307.62 155.36,312.77 159.41,317.26 163.46,321.08 167.51,324.24 171.56,326.74 175.61,328.59 179.66,329.79 183.71,330.38 187.76,330.36 191.82,329.77 195.87,328.63 199.92,326.97 203.97,324.83 208.02,322.24 212.07,319.24 216.12,315.87 220.17,312.17 224.22,308.17 228.27,303.93 232.32,299.48 236.37,294.86 240.42,290.12 244.47,285.29 248.52,280.42 252.57,275.53 256.62,270.67 260.67,265.88 264.72,261.18 268.77,256.6 272.82,252.17 276.87,247.93 280.92,243.89 284.97,240.07 289.03,236.5 293.08,233.19 297.13,230.15 301.18,227.39 305.23,224.93 309.28,222.76 313.33,220.9 317.38,219.35 321.43,218.09 325.48,217.13 329.53,216.47 333.58,216.1 337.63,216 341.68,216.17 345.73,216.6 349.78,217.27 353.83,218.16 357.88,219.26 361.93,220.56 365.98,222.03 370.03,223.67 374.08,225.44 378.13,227.33 382.18,229.33 386.24,231.4 390.29,233.55 394.34,235.73 398.39,237.95 402.44,240.18 406.49,242.4 410.54,244.6 414.59,246.76 418.64,248.87 422.69,250.92 426.74,252.89 430.79,254.77 434.84,256.55 438.89,258.22 442.94,259.78 446.99,261.21 451.04,262.52 455.09,263.69 459.14,264.73 463.19,265.63 467.24,266.4 471.29,267.02 475.34,267.51 479.39,267.86 483.45,268.08 487.5,268.18 491.55,268.14 495.6,267.99 499.65,267.73 503.7,267.36 507.75,266.9 511.8,266.34 515.85,265.7 519.9,264.98 523.95,264.19 528,263.35" fill="none" stroke="#1baf7a" stroke-width="2" stroke-linejoin="round" stroke-linecap="round"/>
<circle cx="528" cy="263.35" r="3" fill="#1baf7a"/>
<text x="535" y="283.84" font-size="11" text-anchor="start" fill="#52514e" font-family="system-ui, sans-serif">cos(x)·e^(-x/4)</text>
<polyline points="46,251.84 50.05,247.29 54.1,243.02 58.15,239.01 62.2,235.26 66.25,231.77 70.3,228.53 74.35,225.53 78.4,222.77 82.45,220.25 86.5,217.96 90.55,215.9 94.61,214.06 98.66,212.43 102.71,211.01 106.76,209.8 110.81,208.79 114.86,207.98 118.91,207.36 122.96,206.92 127.01,206.67 131.06,206.59 135.11,206.68 139.16,206.94 143.21,207.36 147.26,207.94 151.31,208.67 155.36,209.54 159.41,210.56 163.46,211.71 167.51,213 171.56,214.41 175.61,215.94 179.66,217.59 183.71,219.35 187.76,221.22 191.82,223.19 195.87,225.26 199.92,227.41 203.97,229.66 208.02,231.99 212.07,234.39 216.12,236.87 220.17,239.41 224.22,242.02 228.27,244.68 232.32,247.4 236.37,250.16 240.42,252.97 244.47,255.81 248.52,258.68 252.57,261.58 256.62,264.51 260.67,267.45 264.72,270.41 268.77,273.37 272.82,276.33 276.87,279.3 280.92,282.25 284.97,285.2 289.03,288.12 293.08,291.03 297.13,293.9 301.18,296.75 305.23,299.55 309.28,302.32 313.33,305.04 317.38,307.71 321.43,310.32 325.48,312.86 329.53,315.35 333.58,317.76 337.63,320.09 341.68,322.34 345.73,324.5 349.78,326.58 353.83,328.55 357.88,330.43 361.93,332.2 365.98,333.85 370.03,335.4 374.08,336.81 378.13,338.11 382.18,339.27 386.24,340.3 390.29,341.18 394.34,341.92 398.39,342.5 402.44,342.94 406.49,343.21 410.54,343.31 414.59,343.24 418.64,343 422.69,342.58 426.74,341.97 430.79,341.17 434.84,340.17 438.89,338.98 442.94,337.57 446.99,335.96 451.04,334.13 455.09,332.08 459.14,329.81 463.19,327.3 467.24,324.56 471.29,321.58 475.34,318.36 479.39,314.88 483.45,311.15 487.5,307.16 491.55,302.9 495.6,298.37 499.65,293.57 503.7,288.49 507.75,283.12 511.8,277.47 515.85,271.51 519.9,265.26 523.95,258.7 528,251.84" fill="none" stroke="#eda100" stroke-width="2" stroke-linejoin="round" stroke-linecap="round"/>
<circle cx="528" cy="251.84" r="3" fill="#eda100"/>
<text x="535" y="255.84" font-size="11" text-anchor="start" fill="#52514e" font-family="system-ui, sans-serif">x(x-4)(x-10)/120</text>
</svg>
