<svg xmlns="http://www.w3.org/2000/svg" width="640" height="320" viewBox="0 0 640 320">
<rect x="0" y="0" width="640" height="320" fill="#fcfcfb"/>
<line x1="46" y1="284" x2="620" y2="284" stroke="#e1e0d9" stroke-width="1"/>
<text x="38" y="287.5" font-size="11" text-anchor="end" fill="#898781" font-family="system-ui, sans-serif">0</text>
<line x1="46" y1="220.34" x2="620" y2="220.34" stroke="#e1e0d9" stroke-width="1"/>
<text x="38" y="223.84" font-size="11" text-anchor="end" fill="#898781" font-family="system-ui, sans-serif">20</text>
<line x1="46" y1="156.69" x2="620" y2="156.69" stroke="#e1e0d9" stroke-width="1"/>
<text x="38" y="160.19" font-size="11" text-anchor="end" fill="#898781" font-family="system-ui, sans-serif">40</text>
<line x1="46" y1="93.03" x2="620" y2="93.03" stroke="#e1e0d9" stroke-width="1"/>
<text x="38" y="96.53" font-size="11" text-anchor="end" fill="#898781" font-family="system-ui, sans-serif">60</text>
<line x1="46" y1="64" x2="46" y2="284" stroke="#e1e0d9" stroke-width="1"/>
<text x="46" y="300" font-size="11" text-anchor="middle" fill="#898781" font-family="system-ui, sans-serif">0</text>
<line x1="135.69" y1="64" x2="135.69" y2="284" stroke="#e1e0d9" stroke-width="1"/>
<text x="135.69" y="300" font-size="11" text-anchor="middle" fill="#898781" font-family="system-ui, sans-serif">10</text>
<line x1="225.38" y1="64" x2="225.38" y2="284" stroke="#e1e0d9" stroke-width="1"/>
<text x="225.38" y="300" font-size="11" text-anchor="middle" fill="#898781" font-family="system-ui, sans-serif">20</text>
<line x1="315.06" y1="64" x2="315.06" y2="284" stroke="#e1e0d9" stroke-width="1"/>
<text x="315.06" y="300" font-size="11" text-anchor="middle" fill="#898781" font-family="system-ui, sans-serif">30</text>
<line x1="404.75" y1="64" x2="404.75" y2="284" stroke="#e1e0d9" stroke-width="1"/>
<text x="404.75" y="300" font-size="11" text-anchor="middle" fill="#898781" font-family="system-ui, sans-serif">40</text>
<line x1="494.44" y1="64" x2="494.44" y2="284" stroke="#e1e0d9" stroke-width="1"/>
<text x="494.44" y="300" font-size="11" text-anchor="middle" fill="#898781" font-family="system-ui, sans-serif">50</text>
<line x1="584.13" y1="64" x2="584.13" y2="284" stroke="#e1e0d9" stroke-width="1"/>
<text x="584.13" y="300" font-size="11" text-anchor="middle" fill="#898781" font-family="system-ui, sans-serif">60</text>
<text x="46" y="26" font-size="15" font-weight="600" fill="#0b0b0b" font-family="system-ui, sans-serif">Two-tone magnitude spectrum |rfft(x)|, n = 128</text>
<text x="46" y="48" font-size="12" text-anchor="start" fill="#52514e" font-family="system-ui, sans-serif">x[t] = sin(2π·6t/128) + 0.6·sin(2π·17t/128) — all energy on bins 6 and 17</text>
<line x1="46" y1="284" x2="46" y2="284" stroke="#8a63d2" stroke-width="2"/>
<line x1="54.97" y1="284" x2="54.97" y2="284" stroke="#8a63d2" stroke-width="2"/>
<line x1="63.94" y1="284" x2="63.94" y2="284" stroke="#8a63d2" stroke-width="2"/>
<line x1="72.91" y1="284" x2="72.91" y2="284" stroke="#8a63d2" stroke-width="2"/>
<line x1="81.88" y1="284" x2="81.88" y2="284" stroke="#8a63d2" stroke-width="2"/>
<line x1="90.84" y1="284" x2="90.84" y2="284" stroke="#8a63d2" stroke-width="2"/>
<line x1="99.81" y1="284" x2="99.81" y2="80.3" stroke="#8a63d2" stroke-width="2"/>
<circle cx="99.81" cy="80.3" r="2.5" fill="#8a63d2"/>
<text x="99.81" y="72.3" font-size="11" text-anchor="middle" fill="#52514e" font-family="system-ui, sans-serif">6</text>
<line x1="108.78" y1="284" x2="108.78" y2="284" stroke="#8a63d2" stroke-width="2"/>
<line x1="117.75" y1="284" x2="117.75" y2="284" stroke="#8a63d2" stroke-width="2"/>
<line x1="126.72" y1="284" x2="126.72" y2="284" stroke="#8a63d2" stroke-width="2"/>
<line x1="135.69" y1="284" x2="135.69" y2="284" stroke="#8a63d2" stroke-width="2"/>
<line x1="144.66" y1="284" x2="144.66" y2="284" stroke="#8a63d2" stroke-width="2"/>
<line x1="153.63" y1="284" x2="153.63" y2="284" stroke="#8a63d2" stroke-width="2"/>
<line x1="162.59" y1="284" x2="162.59" y2="284" stroke="#8a63d2" stroke-width="2"/>
<line x1="171.56" y1="284" x2="171.56" y2="284" stroke="#8a63d2" stroke-width="2"/>
<line x1="180.53" y1="284" x2="180.53" y2="284" stroke="#8a63d2" stroke-width="2"/>
<line x1="189.5" y1="284" x2="189.5" y2="284" stroke="#8a63d2" stroke-width="2"/>
<line x1="198.47" y1="284" x2="198.47" y2="161.78" stroke="#8a63d2" stroke-width="2"/>
<circle cx="198.47" cy="161.78" r="2.5" fill="#8a63d2"/>
<text x="198.47" y="153.78" font-size="11" text-anchor="middle" fill="#52514e" font-family="system-ui, sans-serif">17</text>
<line x1="207.44" y1="284" x2="207.44" y2="284" stroke="#8a63d2" stroke-width="2"/>
<line x1="216.41" y1="284" x2="216.41" y2="284" stroke="#8a63d2" stroke-width="2"/>
<line x1="225.38" y1="284" x2="225.38" y2="284" stroke="#8a63d2" stroke-width="2"/>
<line x1="234.34" y1="284" x2="234.34" y2="284" stroke="#8a63d2" stroke-width="2"/>
<line x1="243.31" y1="284" x2="243.31" y2="284" stroke="#8a63d2" stroke-width="2"/>
<line x1="252.28" y1="284" x2="252.28" y2="284" stroke="#8a63d2" stroke-width="2"/>
<line x1="261.25" y1="284" x2="261.25" y2="284" stroke="#8a63d2" stroke-width="2"/>
<line x1="270.22" y1="284" x2="270.22" y2="284" stroke="#8a63d2" stroke-width="2"/>
<line x1="279.19" y1="284" x2="279.19" y2="284" stroke="#8a63d2" stroke-width="2"/>
<line x1="288.16" y1="284" x2="288.16" y2="284" stroke="#8a63d2" stroke-width="2"/>
<line x1="297.13" y1="284" x2="297.13" y2="284" stroke="#8a63d2" stroke-width="2"/>
<line x1="306.09" y1="284" x2="306.09" y2="284" stroke="#8a63d2" stroke-width="2"/>
<line x1="315.06" y1="284" x2="315.06" y2="284" stroke="#8a63d2" stroke-width="2"/>
<line x1="324.03" y1="284" x2="324.03" y2="284" stroke="#8a63d2" stroke-width="2"/>
<line x1="333" y1="284" x2="333" y2="284" stroke="#8a63d2" stroke-width="2"/>
<line x1="341.97" y1="284" x2="341.97" y2="284" stroke="#8a63d2" stroke-width="2"/>
<line x1="350.94" y1="284" x2="350.94" y2="284" stroke="#8a63d2" stroke-width="2"/>
<line x1="359.91" y1="284" x2="359.91" y2="284" stroke="#8a63d2" stroke-width="2"/>
<line x1="368.88" y1="284" x2="368.88" y2="284" stroke="#8a63d2" stroke-width="2"/>
<line x1="377.84" y1="284" x2="377.84" y2="284" stroke="#8a63d2" stroke-width="2"/>
<line x1="386.81" y1="284" x2="386.81" y2="284" stroke="#8a63d2" stroke-width="2"/>
<line x1="395.78" y1="284" x2="395.78" y2="284" stroke="#8a63d2" stroke-width="2"/>
<line x1="404.75" y1="284" x2="404.75" y2="284" stroke="#8a63d2" stroke-width="2"/>
<line x1="413.72" y1="284" x2="413.72" y2="284" stroke="#8a63d2" stroke-width="2"/>
<line x1="422.69" y1="284" x2="422.69" y2="284" stroke="#8a63d2" stroke-width="2"/>
<line x1="431.66" y1="284" x2="431.66" y2="284" stroke="#8a63d2" stroke-width="2"/>
<line x1="440.63" y1="284" x2="440.63" y2="284" stroke="#8a63d2" stroke-width="2"/>
<line x1="449.59" y1="284" x2="449.59" y2="284" stroke="#8a63d2" stroke-width="2"/>
<line x1="458.56" y1="284" x2="458.56" y2="284" stroke="#8a63d2" stroke-width="2"/>
<line x1="467.53" y1="284" x2="467.53" y2="284" stroke="#8a63d2" stroke-width="2"/>
<line x1="476.5" y1="284" x2="476.5" y2="284" stroke="#8a63d2" stroke-width="2"/>
<line x1="485.47" y1="284" x2="485.47" y2="284" stroke="#8a63d2" stroke-width="2"/>
<line x1="494.44" y1="284" x2="494.44" y2="284" stroke="#8a63d2" stroke-width="2"/>
<line x1="503.41" y1="284" x2="503.41" y2="284" stroke="#8a63d2" stroke-width="2"/>
<line x1="512.38" y1="284" x2="512.38" y2="284" stroke="#8a63d2" stroke-width="2"/>
<line x1="521.34" y1="284" x2="521.34" y2="284" stroke="#8a63d2" stroke-width="2"/>
<line x1="530.31" y1="284" x2="530.31" y2="284" stroke="#8a63d2" stroke-width="2"/>
<line x1="539.28" y1="284" x2="539.28" y2="284" stroke="#8a63d2" stroke-width="2"/>
<line x1="548.25" y1="284" x2="548.25" y2="284" stroke="#8a63d2" stroke-width="2"/>
<line x1="557.22" y1="284" x2="557.22" y2="284" stroke="#8a63d2" stroke-width="2"/>
<line x1="566.19" y1="284" x2="566.19" y2="284" stroke="#8a63d2" stroke-width="2"/>
<line x1="575.16" y1="284" x2="575.16" y2="284" stroke="#8a63d2" stroke-width="2"/>
<line x1="584.13" y1="284" x2="584.13" y2="284" stroke="#8a63d2" stroke-width="2"/>
<line x1="593.09" y1="284" x2="593.09" y2="284" stroke="#8a63d2" stroke-width="2"/>
<line x1="602.06" y1="284" x2="602.06" y2="284" stroke="#8a63d2" stroke-width="2"/>
<line x1="611.03" y1="284" x2="611.03" y2="284" stroke="#8a63d2" stroke-width="2"/>
<line x1="620" y1="284" x2="620" y2="284" stroke="#8a63d2" stroke-width="2"/>
<line x1="46" y1="284" x2="620" y2="284" stroke="#c3c2b7" stroke-width="1.2"/>
</svg>
