<svg xmlns="http://www.w3.org/2000/svg" width="420" height="420" viewBox="0 0 420 420">
<rect x="0" y="0" width="420" height="420" fill="#1a1a19"/>
<polyline points="400,210 399.97,209.24 399.9,208.48 399.77,207.73 399.6,206.97 399.37,206.21 399.1,205.45 398.77,204.69 398.39,203.93 397.97,203.16 397.49,202.4 396.97,201.63 396.39,200.87" fill="none" stroke="hsl(0, 80%, 62%)" stroke-width="1.6" stroke-linejoin="round" stroke-linecap="round"/>
<polyline points="396.39,200.87 395.77,200.1 395.1,199.33 394.38,198.56 393.61,197.79 392.79,197.01 391.92,196.23 391.01,195.45 390.05,194.67 389.04,193.89 387.99,193.1 386.88,192.31 385.74,191.52" fill="none" stroke="hsl(4, 80%, 62%)" stroke-width="1.6" stroke-linejoin="round" stroke-linecap="round"/>
<polyline points="385.74,191.52 384.54,190.73 383.3,189.93 382.02,189.13 380.69,188.32 379.32,187.52 377.9,186.71 376.44,185.9 374.93,185.08 373.39,184.26 371.8,183.44 370.17,182.61 368.5,181.78" fill="none" stroke="hsl(9, 80%, 62%)" stroke-width="1.6" stroke-linejoin="round" stroke-linecap="round"/>
<polyline points="368.5,181.78 366.79,180.95 365.04,180.11 363.25,179.27 361.42,178.42 359.55,177.58 357.64,176.72 355.7,175.87 353.72,175.01 351.7,174.15 349.65,173.28 347.57,172.41 345.45,171.54" fill="none" stroke="hsl(14, 80%, 62%)" stroke-width="1.6" stroke-linejoin="round" stroke-linecap="round"/>
<polyline points="345.45,171.54 343.29,170.66 341.11,169.78 338.89,168.89 336.64,168 334.36,167.11 332.05,166.22 329.7,165.32 327.34,164.42 324.94,163.51 322.51,162.6 320.06,161.69 317.59,160.77" fill="none" stroke="hsl(19, 80%, 62%)" stroke-width="1.6" stroke-linejoin="round" stroke-linecap="round"/>
<polyline points="317.59,160.77 315.08,159.86 312.56,158.93 310.01,158.01 307.44,157.08 304.84,156.16 302.22,155.22 299.59,154.29 296.93,153.35 294.26,152.42 291.56,151.48 288.85,150.53 286.13,149.59" fill="none" stroke="hsl(24, 80%, 62%)" stroke-width="1.6" stroke-linejoin="round" stroke-linecap="round"/>
<polyline points="286.13,149.59 283.39,148.65 280.63,147.7 277.86,146.75 275.07,145.81 272.28,144.86 269.47,143.91 266.65,142.96 263.82,142.01 260.98,141.06 258.13,140.11 255.28,139.16 252.42,138.21" fill="none" stroke="hsl(28, 80%, 62%)" stroke-width="1.6" stroke-linejoin="round" stroke-linecap="round"/>
<polyline points="252.42,138.21 249.55,137.27 246.68,136.32 243.81,135.38 240.93,134.44 238.05,133.49 235.16,132.56 232.28,131.62 229.4,130.69 226.51,129.76 223.63,128.83 220.75,127.91 217.88,126.99" fill="none" stroke="hsl(33, 80%, 62%)" stroke-width="1.6" stroke-linejoin="round" stroke-linecap="round"/>
<polyline points="217.88,126.99 215.01,126.08 212.14,125.17 209.28,124.26 206.42,123.36 203.58,122.47 200.74,121.58 197.91,120.69 195.09,119.82 192.28,118.95 189.48,118.08 186.69,117.23 183.92,116.38" fill="none" stroke="hsl(38, 80%, 62%)" stroke-width="1.6" stroke-linejoin="round" stroke-linecap="round"/>
<polyline points="183.92,116.38 181.16,115.54 178.41,114.71 175.68,113.89 172.97,113.07 170.27,112.27 167.59,111.48 164.92,110.69 162.28,109.92 159.65,109.16 157.04,108.41 154.46,107.67 151.9,106.94" fill="none" stroke="hsl(43, 80%, 62%)" stroke-width="1.6" stroke-linejoin="round" stroke-linecap="round"/>
<polyline points="151.9,106.94 149.35,106.22 146.84,105.52 144.34,104.83 141.87,104.15 139.42,103.49 137,102.84 134.6,102.21 132.23,101.59 129.89,100.99 127.58,100.4 125.29,99.82 123.03,99.27" fill="none" stroke="hsl(48, 80%, 62%)" stroke-width="1.6" stroke-linejoin="round" stroke-linecap="round"/>
<polyline points="123.03,99.27 120.8,98.73 118.6,98.21 116.43,97.7 114.3,97.22 112.19,96.75 110.11,96.3 108.07,95.87 106.06,95.45 104.08,95.06 102.14,94.69 100.23,94.34 98.36,94.01" fill="none" stroke="hsl(52, 80%, 62%)" stroke-width="1.6" stroke-linejoin="round" stroke-linecap="round"/>
<polyline points="98.36,94.01 96.52,93.7 94.71,93.41 92.95,93.14 91.21,92.89 89.52,92.67 87.86,92.47 86.23,92.29 84.65,92.14 83.1,92 81.59,91.9 80.12,91.81 78.69,91.75" fill="none" stroke="hsl(57, 80%, 62%)" stroke-width="1.6" stroke-linejoin="round" stroke-linecap="round"/>
<polyline points="78.69,91.75 77.29,91.72 75.94,91.71 74.62,91.73 73.35,91.77 72.11,91.84 70.91,91.93 69.75,92.05 68.64,92.2 67.56,92.37 66.52,92.57 65.53,92.8 64.57,93.05" fill="none" stroke="hsl(62, 80%, 62%)" stroke-width="1.6" stroke-linejoin="round" stroke-linecap="round"/>
<polyline points="64.57,93.05 63.66,93.33 62.78,93.64 61.95,93.98 61.16,94.35 60.4,94.75 59.69,95.17 59.02,95.62 58.39,96.1 57.81,96.61 57.26,97.15 56.75,97.72 56.29,98.32" fill="none" stroke="hsl(67, 80%, 62%)" stroke-width="1.6" stroke-linejoin="round" stroke-linecap="round"/>
<polyline points="56.29,98.32 55.86,98.95 55.48,99.61 55.13,100.29 54.83,101.01 54.57,101.76 54.34,102.54 54.16,103.34 54.02,104.18 53.91,105.05 53.85,105.94 53.82,106.87 53.84,107.83" fill="none" stroke="hsl(72, 80%, 62%)" stroke-width="1.6" stroke-linejoin="round" stroke-linecap="round"/>
<polyline points="53.84,107.83 53.89,108.82 53.98,109.83 54.11,110.88 54.28,111.96 54.48,113.07 54.73,114.21 55.01,115.37 55.33,116.57 55.68,117.8 56.07,119.05 56.5,120.34 56.96,121.66" fill="none" stroke="hsl(76, 80%, 62%)" stroke-width="1.6" stroke-linejoin="round" stroke-linecap="round"/>
<polyline points="56.96,121.66 57.46,123 58,124.37 58.57,125.78 59.17,127.21 59.81,128.67 60.48,130.15 61.18,131.67 61.92,133.22 62.69,134.79 63.49,136.39 64.32,138.01 65.18,139.67" fill="none" stroke="hsl(81, 80%, 62%)" stroke-width="1.6" stroke-linejoin="round" stroke-linecap="round"/>
<polyline points="65.18,139.67 66.08,141.35 67,143.05 67.96,144.79 68.94,146.54 69.95,148.33 71,150.14 72.07,151.97 73.16,153.83 74.29,155.71 75.44,157.62 76.61,159.55 77.81,161.5" fill="none" stroke="hsl(86, 80%, 62%)" stroke-width="1.6" stroke-linejoin="round" stroke-linecap="round"/>
<polyline points="77.81,161.5 79.04,163.48 80.29,165.48 81.57,167.5 82.86,169.54 84.18,171.6 85.53,173.69 86.89,175.79 88.28,177.91 89.69,180.05 91.11,182.21 92.56,184.39 94.03,186.59" fill="none" stroke="hsl(91, 80%, 62%)" stroke-width="1.6" stroke-linejoin="round" stroke-linecap="round"/>
<polyline points="94.03,186.59 95.51,188.8 97.01,191.03 98.53,193.28 100.07,195.54 101.62,197.82 103.19,200.11 104.78,202.41 106.37,204.73 107.99,207.06 109.61,209.4 111.25,211.76 112.9,214.12" fill="none" stroke="hsl(96, 80%, 62%)" stroke-width="1.6" stroke-linejoin="round" stroke-linecap="round"/>
<polyline points="112.9,214.12 114.57,216.5 116.24,218.89 117.93,221.28 119.62,223.69 121.33,226.1 123.04,228.52 124.76,230.94 126.5,233.37 128.23,235.81 129.98,238.25 131.73,240.69 133.49,243.14" fill="none" stroke="hsl(100, 80%, 62%)" stroke-width="1.6" stroke-linejoin="round" stroke-linecap="round"/>
<polyline points="133.49,243.14 135.25,245.59 137.02,248.05 138.79,250.5 140.56,252.95 142.34,255.41 144.12,257.86 145.91,260.31 147.69,262.76 149.48,265.21 151.26,267.65 153.05,270.09 154.84,272.53" fill="none" stroke="hsl(105, 80%, 62%)" stroke-width="1.6" stroke-linejoin="round" stroke-linecap="round"/>
<polyline points="154.84,272.53 156.62,274.95 158.41,277.38 160.19,279.79 161.97,282.2 163.75,284.59 165.52,286.98 167.29,289.36 169.06,291.72 170.82,294.08 172.58,296.42 174.33,298.75 176.07,301.07" fill="none" stroke="hsl(110, 80%, 62%)" stroke-width="1.6" stroke-linejoin="round" stroke-linecap="round"/>
<polyline points="176.07,301.07 177.81,303.37 179.55,305.66 181.27,307.93 182.99,310.18 184.7,312.42 186.4,314.64 188.1,316.84 189.78,319.02 191.46,321.18 193.13,323.32 194.78,325.44 196.43,327.53" fill="none" stroke="hsl(115, 80%, 62%)" stroke-width="1.6" stroke-linejoin="round" stroke-linecap="round"/>
<polyline points="196.43,327.53 198.06,329.6 199.69,331.65 201.3,333.68 202.9,335.68 204.5,337.65 206.07,339.6 207.64,341.52 209.19,343.42 210.73,345.28 212.26,347.12 213.77,348.93 215.27,350.7" fill="none" stroke="hsl(120, 80%, 62%)" stroke-width="1.6" stroke-linejoin="round" stroke-linecap="round"/>
<polyline points="215.27,350.7 216.76,352.45 218.23,354.16 219.69,355.85 221.13,357.5 222.56,359.12 223.98,360.7 225.38,362.25 226.76,363.76 228.13,365.24 229.48,366.69 230.82,368.09 232.14,369.46" fill="none" stroke="hsl(124, 80%, 62%)" stroke-width="1.6" stroke-linejoin="round" stroke-linecap="round"/>
<polyline points="232.14,369.46 233.45,370.8 234.74,372.09 236.01,373.35 237.27,374.56 238.51,375.74 239.73,376.88 240.94,377.98 242.13,379.03 243.31,380.05 244.46,381.02 245.61,381.96 246.73,382.85" fill="none" stroke="hsl(129, 80%, 62%)" stroke-width="1.6" stroke-linejoin="round" stroke-linecap="round"/>
<polyline points="246.73,382.85 247.84,383.69 248.93,384.5 250,385.26 251.06,385.97 252.1,386.65 253.12,387.27 254.13,387.86 255.12,388.4 256.09,388.89 257.05,389.34 257.99,389.74 258.91,390.09" fill="none" stroke="hsl(134, 80%, 62%)" stroke-width="1.6" stroke-linejoin="round" stroke-linecap="round"/>
<polyline points="258.91,390.09 259.82,390.4 260.71,390.67 261.58,390.88 262.44,391.05 263.28,391.17 264.1,391.25 264.91,391.28 265.7,391.26 266.48,391.19 267.24,391.07 267.98,390.91 268.71,390.7" fill="none" stroke="hsl(139, 80%, 62%)" stroke-width="1.6" stroke-linejoin="round" stroke-linecap="round"/>
<polyline points="268.71,390.7 269.43,390.44 270.12,390.14 270.81,389.78 271.47,389.38 272.13,388.93 272.76,388.43 273.39,387.89 273.99,387.3 274.59,386.66 275.17,385.97 275.73,385.23 276.28,384.45" fill="none" stroke="hsl(144, 80%, 62%)" stroke-width="1.6" stroke-linejoin="round" stroke-linecap="round"/>
<polyline points="276.28,384.45 276.82,383.62 277.35,382.74 277.86,381.82 278.35,380.85 278.84,379.83 279.31,378.77 279.77,377.66 280.22,376.5 280.65,375.3 281.07,374.05 281.48,372.76 281.88,371.42" fill="none" stroke="hsl(148, 80%, 62%)" stroke-width="1.6" stroke-linejoin="round" stroke-linecap="round"/>
<polyline points="281.88,371.42 282.27,370.04 282.64,368.62 283.01,367.15 283.36,365.64 283.7,364.08 284.04,362.48 284.36,360.84 284.67,359.16 284.97,357.44 285.26,355.67 285.54,353.87 285.82,352.02" fill="none" stroke="hsl(153, 80%, 62%)" stroke-width="1.6" stroke-linejoin="round" stroke-linecap="round"/>
<polyline points="285.82,352.02 286.08,350.14 286.34,348.21 286.58,346.25 286.82,344.25 287.05,342.21 287.27,340.13 287.48,338.02 287.69,335.87 287.89,333.69 288.08,331.47 288.26,329.22 288.44,326.93" fill="none" stroke="hsl(158, 80%, 62%)" stroke-width="1.6" stroke-linejoin="round" stroke-linecap="round"/>
<polyline points="288.44,326.93 288.61,324.61 288.77,322.26 288.92,319.88 289.07,317.46 289.22,315.02 289.35,312.54 289.49,310.04 289.61,307.51 289.73,304.95 289.85,302.36 289.96,299.75 290.06,297.11" fill="none" stroke="hsl(163, 80%, 62%)" stroke-width="1.6" stroke-linejoin="round" stroke-linecap="round"/>
<polyline points="290.06,297.11 290.16,294.45 290.26,291.76 290.35,289.05 290.44,286.31 290.52,283.56 290.59,280.78 290.67,277.99 290.74,275.17 290.8,272.34 290.86,269.49 290.92,266.62 290.98,263.73" fill="none" stroke="hsl(168, 80%, 62%)" stroke-width="1.6" stroke-linejoin="round" stroke-linecap="round"/>
<polyline points="290.98,263.73 291.03,260.83 291.08,257.92 291.12,254.99 291.16,252.05 291.2,249.1 291.23,246.13 291.27,243.16 291.29,240.17 291.32,237.18 291.34,234.18 291.36,231.17 291.38,228.16" fill="none" stroke="hsl(172, 80%, 62%)" stroke-width="1.6" stroke-linejoin="round" stroke-linecap="round"/>
<polyline points="291.38,228.16 291.4,225.14 291.41,222.12 291.42,219.09 291.42,216.06 291.43,213.03 291.43,210 291.43,206.97 291.42,203.94 291.42,200.91 291.41,197.88 291.4,194.86 291.38,191.84" fill="none" stroke="hsl(177, 80%, 62%)" stroke-width="1.6" stroke-linejoin="round" stroke-linecap="round"/>
<polyline points="291.38,191.84 291.36,188.83 291.34,185.82 291.32,182.82 291.29,179.83 291.27,176.84 291.23,173.87 291.2,170.9 291.16,167.95 291.12,165.01 291.08,162.08 291.03,159.17 290.98,156.27" fill="none" stroke="hsl(182, 80%, 62%)" stroke-width="1.6" stroke-linejoin="round" stroke-linecap="round"/>
<polyline points="290.98,156.27 290.92,153.38 290.86,150.51 290.8,147.66 290.74,144.83 290.67,142.01 290.59,139.22 290.52,136.44 290.44,133.69 290.35,130.95 290.26,128.24 290.16,125.55 290.06,122.89" fill="none" stroke="hsl(187, 80%, 62%)" stroke-width="1.6" stroke-linejoin="round" stroke-linecap="round"/>
<polyline points="290.06,122.89 289.96,120.25 289.85,117.64 289.73,115.05 289.61,112.49 289.49,109.96 289.35,107.46 289.22,104.98 289.07,102.54 288.92,100.12 288.77,97.74 288.61,95.39 288.44,93.07" fill="none" stroke="hsl(192, 80%, 62%)" stroke-width="1.6" stroke-linejoin="round" stroke-linecap="round"/>
<polyline points="288.44,93.07 288.26,90.78 288.08,88.53 287.89,86.31 287.69,84.13 287.48,81.98 287.27,79.87 287.05,77.79 286.82,75.75 286.58,73.75 286.34,71.79 286.08,69.86 285.82,67.98" fill="none" stroke="hsl(196, 80%, 62%)" stroke-width="1.6" stroke-linejoin="round" stroke-linecap="round"/>
<polyline points="285.82,67.98 285.54,66.13 285.26,64.33 284.97,62.56 284.67,60.84 284.36,59.16 284.04,57.52 283.7,55.92 283.36,54.36 283.01,52.85 282.64,51.38 282.27,49.96 281.88,48.58" fill="none" stroke="hsl(201, 80%, 62%)" stroke-width="1.6" stroke-linejoin="round" stroke-linecap="round"/>
<polyline points="281.88,48.58 281.48,47.24 281.07,45.95 280.65,44.7 280.22,43.5 279.77,42.34 279.31,41.23 278.84,40.17 278.35,39.15 277.86,38.18 277.35,37.26 276.82,36.38 276.28,35.55" fill="none" stroke="hsl(206, 80%, 62%)" stroke-width="1.6" stroke-linejoin="round" stroke-linecap="round"/>
<polyline points="276.28,35.55 275.73,34.77 275.17,34.03 274.59,33.34 273.99,32.7 273.39,32.11 272.76,31.57 272.13,31.07 271.47,30.62 270.81,30.22 270.12,29.86 269.43,29.56 268.71,29.3" fill="none" stroke="hsl(211, 80%, 62%)" stroke-width="1.6" stroke-linejoin="round" stroke-linecap="round"/>
<polyline points="268.71,29.3 267.98,29.09 267.24,28.93 266.48,28.81 265.7,28.74 264.91,28.72 264.1,28.75 263.28,28.83 262.44,28.95 261.58,29.12 260.71,29.33 259.82,29.6 258.91,29.91" fill="none" stroke="hsl(216, 80%, 62%)" stroke-width="1.6" stroke-linejoin="round" stroke-linecap="round"/>
<polyline points="258.91,29.91 257.99,30.26 257.05,30.66 256.09,31.11 255.12,31.6 254.13,32.14 253.12,32.73 252.1,33.35 251.06,34.03 250,34.74 248.93,35.5 247.84,36.31 246.73,37.15" fill="none" stroke="hsl(220, 80%, 62%)" stroke-width="1.6" stroke-linejoin="round" stroke-linecap="round"/>
<polyline points="246.73,37.15 245.61,38.04 244.46,38.98 243.31,39.95 242.13,40.97 240.94,42.02 239.73,43.12 238.51,44.26 237.27,45.44 236.01,46.65 234.74,47.91 233.45,49.2 232.14,50.54" fill="none" stroke="hsl(225, 80%, 62%)" stroke-width="1.6" stroke-linejoin="round" stroke-linecap="round"/>
<polyline points="232.14,50.54 230.82,51.91 229.48,53.31 228.13,54.76 226.76,56.24 225.38,57.75 223.98,59.3 222.56,60.88 221.13,62.5 219.69,64.15 218.23,65.84 216.76,67.55 215.27,69.3" fill="none" stroke="hsl(230, 80%, 62%)" stroke-width="1.6" stroke-linejoin="round" stroke-linecap="round"/>
<polyline points="215.27,69.3 213.77,71.07 212.26,72.88 210.73,74.72 209.19,76.58 207.64,78.48 206.07,80.4 204.5,82.35 202.9,84.32 201.3,86.32 199.69,88.35 198.06,90.4 196.43,92.47" fill="none" stroke="hsl(235, 80%, 62%)" stroke-width="1.6" stroke-linejoin="round" stroke-linecap="round"/>
<polyline points="196.43,92.47 194.78,94.56 193.13,96.68 191.46,98.82 189.78,100.98 188.1,103.16 186.4,105.36 184.7,107.58 182.99,109.82 181.27,112.07 179.55,114.34 177.81,116.63 176.07,118.93" fill="none" stroke="hsl(240, 80%, 62%)" stroke-width="1.6" stroke-linejoin="round" stroke-linecap="round"/>
<polyline points="176.07,118.93 174.33,121.25 172.58,123.58 170.82,125.92 169.06,128.28 167.29,130.64 165.52,133.02 163.75,135.41 161.97,137.8 160.19,140.21 158.41,142.62 156.62,145.05 154.84,147.47" fill="none" stroke="hsl(244, 80%, 62%)" stroke-width="1.6" stroke-linejoin="round" stroke-linecap="round"/>
<polyline points="154.84,147.47 153.05,149.91 151.26,152.35 149.48,154.79 147.69,157.24 145.91,159.69 144.12,162.14 142.34,164.59 140.56,167.05 138.79,169.5 137.02,171.95 135.25,174.41 133.49,176.86" fill="none" stroke="hsl(249, 80%, 62%)" stroke-width="1.6" stroke-linejoin="round" stroke-linecap="round"/>
<polyline points="133.49,176.86 131.73,179.31 129.98,181.75 128.23,184.19 126.5,186.63 124.76,189.06 123.04,191.48 121.33,193.9 119.62,196.31 117.93,198.72 116.24,201.11 114.57,203.5 112.9,205.88" fill="none" stroke="hsl(254, 80%, 62%)" stroke-width="1.6" stroke-linejoin="round" stroke-linecap="round"/>
<polyline points="112.9,205.88 111.25,208.24 109.61,210.6 107.99,212.94 106.37,215.27 104.78,217.59 103.19,219.89 101.62,222.18 100.07,224.46 98.53,226.72 97.01,228.97 95.51,231.2 94.03,233.41" fill="none" stroke="hsl(259, 80%, 62%)" stroke-width="1.6" stroke-linejoin="round" stroke-linecap="round"/>
<polyline points="94.03,233.41 92.56,235.61 91.11,237.79 89.69,239.95 88.28,242.09 86.89,244.21 85.53,246.31 84.18,248.4 82.86,250.46 81.57,252.5 80.29,254.52 79.04,256.52 77.81,258.5" fill="none" stroke="hsl(264, 80%, 62%)" stroke-width="1.6" stroke-linejoin="round" stroke-linecap="round"/>
<polyline points="77.81,258.5 76.61,260.45 75.44,262.38 74.29,264.29 73.16,266.17 72.07,268.03 71,269.86 69.95,271.67 68.94,273.46 67.96,275.21 67,276.95 66.08,278.65 65.18,280.33" fill="none" stroke="hsl(268, 80%, 62%)" stroke-width="1.6" stroke-linejoin="round" stroke-linecap="round"/>
<polyline points="65.18,280.33 64.32,281.99 63.49,283.61 62.69,285.21 61.92,286.78 61.18,288.33 60.48,289.85 59.81,291.33 59.17,292.79 58.57,294.22 58,295.63 57.46,297 56.96,298.34" fill="none" stroke="hsl(273, 80%, 62%)" stroke-width="1.6" stroke-linejoin="round" stroke-linecap="round"/>
<polyline points="56.96,298.34 56.5,299.66 56.07,300.95 55.68,302.2 55.33,303.43 55.01,304.63 54.73,305.79 54.48,306.93 54.28,308.04 54.11,309.12 53.98,310.17 53.89,311.18 53.84,312.17" fill="none" stroke="hsl(278, 80%, 62%)" stroke-width="1.6" stroke-linejoin="round" stroke-linecap="round"/>
<polyline points="53.84,312.17 53.82,313.13 53.85,314.06 53.91,314.95 54.02,315.82 54.16,316.66 54.34,317.46 54.57,318.24 54.83,318.99 55.13,319.71 55.48,320.39 55.86,321.05 56.29,321.68" fill="none" stroke="hsl(283, 80%, 62%)" stroke-width="1.6" stroke-linejoin="round" stroke-linecap="round"/>
<polyline points="56.29,321.68 56.75,322.28 57.26,322.85 57.81,323.39 58.39,323.9 59.02,324.38 59.69,324.83 60.4,325.25 61.16,325.65 61.95,326.02 62.78,326.36 63.66,326.67 64.57,326.95" fill="none" stroke="hsl(288, 80%, 62%)" stroke-width="1.6" stroke-linejoin="round" stroke-linecap="round"/>
<polyline points="64.57,326.95 65.53,327.2 66.52,327.43 67.56,327.63 68.64,327.8 69.75,327.95 70.91,328.07 72.11,328.16 73.35,328.23 74.62,328.27 75.94,328.29 77.29,328.28 78.69,328.25" fill="none" stroke="hsl(292, 80%, 62%)" stroke-width="1.6" stroke-linejoin="round" stroke-linecap="round"/>
<polyline points="78.69,328.25 80.12,328.19 81.59,328.1 83.1,328 84.65,327.86 86.23,327.71 87.86,327.53 89.52,327.33 91.21,327.11 92.95,326.86 94.71,326.59 96.52,326.3 98.36,325.99" fill="none" stroke="hsl(297, 80%, 62%)" stroke-width="1.6" stroke-linejoin="round" stroke-linecap="round"/>
<polyline points="98.36,325.99 100.23,325.66 102.14,325.31 104.08,324.94 106.06,324.55 108.07,324.13 110.11,323.7 112.19,323.25 114.3,322.78 116.43,322.3 118.6,321.79 120.8,321.27 123.03,320.73" fill="none" stroke="hsl(302, 80%, 62%)" stroke-width="1.6" stroke-linejoin="round" stroke-linecap="round"/>
<polyline points="123.03,320.73 125.29,320.18 127.58,319.6 129.89,319.01 132.23,318.41 134.6,317.79 137,317.16 139.42,316.51 141.87,315.85 144.34,315.17 146.84,314.48 149.35,313.78 151.9,313.06" fill="none" stroke="hsl(307, 80%, 62%)" stroke-width="1.6" stroke-linejoin="round" stroke-linecap="round"/>
<polyline points="151.9,313.06 154.46,312.33 157.04,311.59 159.65,310.84 162.28,310.08 164.92,309.31 167.59,308.52 170.27,307.73 172.97,306.93 175.68,306.11 178.41,305.29 181.16,304.46 183.92,303.62" fill="none" stroke="hsl(312, 80%, 62%)" stroke-width="1.6" stroke-linejoin="round" stroke-linecap="round"/>
<polyline points="183.92,303.62 186.69,302.77 189.48,301.92 192.28,301.05 195.09,300.18 197.91,299.31 200.74,298.42 203.58,297.53 206.42,296.64 209.28,295.74 212.14,294.83 215.01,293.92 217.88,293.01" fill="none" stroke="hsl(316, 80%, 62%)" stroke-width="1.6" stroke-linejoin="round" stroke-linecap="round"/>
<polyline points="217.88,293.01 220.75,292.09 223.63,291.17 226.51,290.24 229.4,289.31 232.28,288.38 235.16,287.44 238.05,286.51 240.93,285.56 243.81,284.62 246.68,283.68 249.55,282.73 252.42,281.79" fill="none" stroke="hsl(321, 80%, 62%)" stroke-width="1.6" stroke-linejoin="round" stroke-linecap="round"/>
<polyline points="252.42,281.79 255.28,280.84 258.13,279.89 260.98,278.94 263.82,277.99 266.65,277.04 269.47,276.09 272.28,275.14 275.07,274.19 277.86,273.25 280.63,272.3 283.39,271.35 286.13,270.41" fill="none" stroke="hsl(326, 80%, 62%)" stroke-width="1.6" stroke-linejoin="round" stroke-linecap="round"/>
<polyline points="286.13,270.41 288.85,269.47 291.56,268.52 294.26,267.58 296.93,266.65 299.59,265.71 302.22,264.78 304.84,263.84 307.44,262.92 310.01,261.99 312.56,261.07 315.08,260.14 317.59,259.23" fill="none" stroke="hsl(331, 80%, 62%)" stroke-width="1.6" stroke-linejoin="round" stroke-linecap="round"/>
<polyline points="317.59,259.23 320.06,258.31 322.51,257.4 324.94,256.49 327.34,255.58 329.7,254.68 332.05,253.78 334.36,252.89 336.64,252 338.89,251.11 341.11,250.22 343.29,249.34 345.45,248.46" fill="none" stroke="hsl(336, 80%, 62%)" stroke-width="1.6" stroke-linejoin="round" stroke-linecap="round"/>
<polyline points="345.45,248.46 347.57,247.59 349.65,246.72 351.7,245.85 353.72,244.99 355.7,244.13 357.64,243.28 359.55,242.42 361.42,241.58 363.25,240.73 365.04,239.89 366.79,239.05 368.5,238.22" fill="none" stroke="hsl(340, 80%, 62%)" stroke-width="1.6" stroke-linejoin="round" stroke-linecap="round"/>
<polyline points="368.5,238.22 370.17,237.39 371.8,236.56 373.39,235.74 374.93,234.92 376.44,234.1 377.9,233.29 379.32,232.48 380.69,231.68 382.02,230.87 383.3,230.07 384.54,229.27 385.74,228.48" fill="none" stroke="hsl(345, 80%, 62%)" stroke-width="1.6" stroke-linejoin="round" stroke-linecap="round"/>
<polyline points="385.74,228.48 386.88,227.69 387.99,226.9 389.04,226.11 390.05,225.33 391.01,224.55 391.92,223.77 392.79,222.99 393.61,222.21 394.38,221.44 395.1,220.67 395.77,219.9 396.39,219.13" fill="none" stroke="hsl(350, 80%, 62%)" stroke-width="1.6" stroke-linejoin="round" stroke-linecap="round"/>
<polyline points="396.39,219.13 396.97,218.37 397.49,217.6 397.97,216.84 398.39,216.07 398.77,215.31 399.1,214.55 399.37,213.79 399.6,213.03 399.77,212.27 399.9,211.52 399.97,210.76 400,210" fill="none" stroke="hsl(355, 80%, 62%)" stroke-width="1.6" stroke-linejoin="round" stroke-linecap="round"/>
<text x="210" y="404" font-size="11" text-anchor="middle" fill="#898781" font-family="system-ui, sans-serif">hypotrochoid R=5 r=3 d=5, 75 strokes</text>
</svg>
